<mxfile host="app.diagrams.net" modified="2023-09-07T13:48:02.874Z" agent="Mozilla/5.0 (Windows NT 10.0; Win64; x64) AppleWebKit/537.36 (KHTML, like Gecko) Chrome/116.0.0.0 Safari/537.36" etag="un-VdwhEcZze6L73jMVT" version="21.7.2" type="device">
  <diagram name="Página-1" id="4wfGt2yOibsytfmZp0Mq">
    <mxGraphModel dx="1114" dy="610" grid="1" gridSize="10" guides="1" tooltips="1" connect="1" arrows="1" fold="1" page="1" pageScale="1" pageWidth="827" pageHeight="1169" math="0" shadow="0">
      <root>
        <mxCell id="0" />
        <mxCell id="1" parent="0" />
        <mxCell id="2wfiQ_Yu__5wxP6YbPs4-2" value="Sistema" style="verticalAlign=top;align=left;spacingTop=8;spacingLeft=2;spacingRight=12;shape=cube;size=10;direction=south;fontStyle=4;html=1;whiteSpace=wrap;" vertex="1" parent="1">
          <mxGeometry x="220" y="150" width="411" height="450" as="geometry" />
        </mxCell>
        <mxCell id="2wfiQ_Yu__5wxP6YbPs4-9" style="edgeStyle=orthogonalEdgeStyle;rounded=0;orthogonalLoop=1;jettySize=auto;html=1;entryX=0;entryY=0.5;entryDx=0;entryDy=0;" edge="1" parent="1" source="2wfiQ_Yu__5wxP6YbPs4-1" target="2wfiQ_Yu__5wxP6YbPs4-3">
          <mxGeometry relative="1" as="geometry" />
        </mxCell>
        <mxCell id="2wfiQ_Yu__5wxP6YbPs4-1" value="Usuario&lt;br&gt;ASODI" style="shape=umlActor;verticalLabelPosition=bottom;verticalAlign=top;html=1;" vertex="1" parent="1">
          <mxGeometry x="130" y="245" width="30" height="60" as="geometry" />
        </mxCell>
        <mxCell id="2wfiQ_Yu__5wxP6YbPs4-8" style="edgeStyle=orthogonalEdgeStyle;rounded=0;orthogonalLoop=1;jettySize=auto;html=1;entryX=0;entryY=0.5;entryDx=0;entryDy=0;" edge="1" parent="1" source="2wfiQ_Yu__5wxP6YbPs4-3" target="2wfiQ_Yu__5wxP6YbPs4-4">
          <mxGeometry relative="1" as="geometry" />
        </mxCell>
        <mxCell id="2wfiQ_Yu__5wxP6YbPs4-3" value="Realizar publicación del apartado informativo" style="ellipse;whiteSpace=wrap;html=1;" vertex="1" parent="1">
          <mxGeometry x="230" y="240" width="140" height="70" as="geometry" />
        </mxCell>
        <mxCell id="2wfiQ_Yu__5wxP6YbPs4-4" value="Sistema de gestión de eventos y publicaciones informativas" style="ellipse;whiteSpace=wrap;html=1;" vertex="1" parent="1">
          <mxGeometry x="430" y="240" width="140" height="70" as="geometry" />
        </mxCell>
        <mxCell id="2wfiQ_Yu__5wxP6YbPs4-5" value="" style="endArrow=block;dashed=1;endFill=0;endSize=12;html=1;rounded=0;exitX=0.5;exitY=1;exitDx=0;exitDy=0;entryX=0.5;entryY=0;entryDx=0;entryDy=0;" edge="1" parent="1" source="2wfiQ_Yu__5wxP6YbPs4-4" target="2wfiQ_Yu__5wxP6YbPs4-6">
          <mxGeometry width="160" relative="1" as="geometry">
            <mxPoint x="450" y="390" as="sourcePoint" />
            <mxPoint x="750" y="350" as="targetPoint" />
          </mxGeometry>
        </mxCell>
        <mxCell id="2wfiQ_Yu__5wxP6YbPs4-7" value="&amp;lt;Include&amp;gt;" style="edgeLabel;html=1;align=center;verticalAlign=middle;resizable=0;points=[];" vertex="1" connectable="0" parent="2wfiQ_Yu__5wxP6YbPs4-5">
          <mxGeometry x="-0.1143" y="2" relative="1" as="geometry">
            <mxPoint as="offset" />
          </mxGeometry>
        </mxCell>
        <mxCell id="2wfiQ_Yu__5wxP6YbPs4-6" value="Base de datos de publicaciones informativas" style="ellipse;whiteSpace=wrap;html=1;" vertex="1" parent="1">
          <mxGeometry x="430" y="380" width="140" height="70" as="geometry" />
        </mxCell>
        <mxCell id="2wfiQ_Yu__5wxP6YbPs4-10" value="" style="endArrow=block;dashed=1;endFill=0;endSize=12;html=1;rounded=0;exitX=0.5;exitY=1;exitDx=0;exitDy=0;" edge="1" parent="1" source="2wfiQ_Yu__5wxP6YbPs4-6" target="2wfiQ_Yu__5wxP6YbPs4-11">
          <mxGeometry width="160" relative="1" as="geometry">
            <mxPoint x="480" y="500" as="sourcePoint" />
            <mxPoint x="640" y="500" as="targetPoint" />
          </mxGeometry>
        </mxCell>
        <mxCell id="2wfiQ_Yu__5wxP6YbPs4-12" value="&amp;lt;Extend&amp;gt;" style="edgeLabel;html=1;align=center;verticalAlign=middle;resizable=0;points=[];" vertex="1" connectable="0" parent="2wfiQ_Yu__5wxP6YbPs4-10">
          <mxGeometry x="-0.2615" y="1" relative="1" as="geometry">
            <mxPoint as="offset" />
          </mxGeometry>
        </mxCell>
        <mxCell id="2wfiQ_Yu__5wxP6YbPs4-11" value="Notificación y envió de eventos" style="ellipse;whiteSpace=wrap;html=1;" vertex="1" parent="1">
          <mxGeometry x="430" y="515" width="140" height="70" as="geometry" />
        </mxCell>
      </root>
    </mxGraphModel>
  </diagram>
</mxfile>
